<svg xmlns="http://www.w3.org/2000/svg" width="980" height="560" viewBox="0 0 980 560">
<rect width="980" height="560" fill="#ffffff" />
<text x="88" y="38" font-family="Arial, sans-serif" font-size="26" font-weight="700" fill="#0f172a">cnn loss</text>
<text x="88" y="62" font-family="Arial, sans-serif" font-size="14" fill="#475569">Training and validation loss by epoch</text>
<line x1="88" y1="464.00" x2="944" y2="464.00" stroke="#dbe4f0" stroke-width="1" />
<text x="76" y="469.00" text-anchor="end" font-family="Arial, sans-serif" font-size="12" fill="#475569">0</text>
<line x1="88" y1="369.00" x2="944" y2="369.00" stroke="#dbe4f0" stroke-width="1" />
<text x="76" y="374.00" text-anchor="end" font-family="Arial, sans-serif" font-size="12" fill="#475569">1.328</text>
<line x1="88" y1="274.00" x2="944" y2="274.00" stroke="#dbe4f0" stroke-width="1" />
<text x="76" y="279.00" text-anchor="end" font-family="Arial, sans-serif" font-size="12" fill="#475569">2.657</text>
<line x1="88" y1="179.00" x2="944" y2="179.00" stroke="#dbe4f0" stroke-width="1" />
<text x="76" y="184.00" text-anchor="end" font-family="Arial, sans-serif" font-size="12" fill="#475569">3.985</text>
<line x1="88" y1="84.00" x2="944" y2="84.00" stroke="#dbe4f0" stroke-width="1" />
<text x="76" y="89.00" text-anchor="end" font-family="Arial, sans-serif" font-size="12" fill="#475569">5.314</text>
<line x1="88.00" y1="84" x2="88.00" y2="464" stroke="#dbe4f0" stroke-width="1" />
<text x="88.00" y="488" text-anchor="middle" font-family="Arial, sans-serif" font-size="12" fill="#475569">1</text>
<line x1="133.05" y1="84" x2="133.05" y2="464" stroke="#dbe4f0" stroke-width="1" />
<text x="133.05" y="488" text-anchor="middle" font-family="Arial, sans-serif" font-size="12" fill="#475569">2</text>
<line x1="178.11" y1="84" x2="178.11" y2="464" stroke="#dbe4f0" stroke-width="1" />
<text x="178.11" y="488" text-anchor="middle" font-family="Arial, sans-serif" font-size="12" fill="#475569">3</text>
<line x1="223.16" y1="84" x2="223.16" y2="464" stroke="#dbe4f0" stroke-width="1" />
<text x="223.16" y="488" text-anchor="middle" font-family="Arial, sans-serif" font-size="12" fill="#475569">4</text>
<line x1="268.21" y1="84" x2="268.21" y2="464" stroke="#dbe4f0" stroke-width="1" />
<text x="268.21" y="488" text-anchor="middle" font-family="Arial, sans-serif" font-size="12" fill="#475569">5</text>
<line x1="313.26" y1="84" x2="313.26" y2="464" stroke="#dbe4f0" stroke-width="1" />
<text x="313.26" y="488" text-anchor="middle" font-family="Arial, sans-serif" font-size="12" fill="#475569">6</text>
<line x1="358.32" y1="84" x2="358.32" y2="464" stroke="#dbe4f0" stroke-width="1" />
<text x="358.32" y="488" text-anchor="middle" font-family="Arial, sans-serif" font-size="12" fill="#475569">7</text>
<line x1="403.37" y1="84" x2="403.37" y2="464" stroke="#dbe4f0" stroke-width="1" />
<text x="403.37" y="488" text-anchor="middle" font-family="Arial, sans-serif" font-size="12" fill="#475569">8</text>
<line x1="448.42" y1="84" x2="448.42" y2="464" stroke="#dbe4f0" stroke-width="1" />
<text x="448.42" y="488" text-anchor="middle" font-family="Arial, sans-serif" font-size="12" fill="#475569">9</text>
<line x1="493.47" y1="84" x2="493.47" y2="464" stroke="#dbe4f0" stroke-width="1" />
<text x="493.47" y="488" text-anchor="middle" font-family="Arial, sans-serif" font-size="12" fill="#475569">10</text>
<line x1="538.53" y1="84" x2="538.53" y2="464" stroke="#dbe4f0" stroke-width="1" />
<text x="538.53" y="488" text-anchor="middle" font-family="Arial, sans-serif" font-size="12" fill="#475569">11</text>
<line x1="583.58" y1="84" x2="583.58" y2="464" stroke="#dbe4f0" stroke-width="1" />
<text x="583.58" y="488" text-anchor="middle" font-family="Arial, sans-serif" font-size="12" fill="#475569">12</text>
<line x1="628.63" y1="84" x2="628.63" y2="464" stroke="#dbe4f0" stroke-width="1" />
<text x="628.63" y="488" text-anchor="middle" font-family="Arial, sans-serif" font-size="12" fill="#475569">13</text>
<line x1="673.68" y1="84" x2="673.68" y2="464" stroke="#dbe4f0" stroke-width="1" />
<text x="673.68" y="488" text-anchor="middle" font-family="Arial, sans-serif" font-size="12" fill="#475569">14</text>
<line x1="718.74" y1="84" x2="718.74" y2="464" stroke="#dbe4f0" stroke-width="1" />
<text x="718.74" y="488" text-anchor="middle" font-family="Arial, sans-serif" font-size="12" fill="#475569">15</text>
<line x1="763.79" y1="84" x2="763.79" y2="464" stroke="#dbe4f0" stroke-width="1" />
<text x="763.79" y="488" text-anchor="middle" font-family="Arial, sans-serif" font-size="12" fill="#475569">16</text>
<line x1="808.84" y1="84" x2="808.84" y2="464" stroke="#dbe4f0" stroke-width="1" />
<text x="808.84" y="488" text-anchor="middle" font-family="Arial, sans-serif" font-size="12" fill="#475569">17</text>
<line x1="853.89" y1="84" x2="853.89" y2="464" stroke="#dbe4f0" stroke-width="1" />
<text x="853.89" y="488" text-anchor="middle" font-family="Arial, sans-serif" font-size="12" fill="#475569">18</text>
<line x1="898.95" y1="84" x2="898.95" y2="464" stroke="#dbe4f0" stroke-width="1" />
<text x="898.95" y="488" text-anchor="middle" font-family="Arial, sans-serif" font-size="12" fill="#475569">19</text>
<line x1="944.00" y1="84" x2="944.00" y2="464" stroke="#dbe4f0" stroke-width="1" />
<text x="944.00" y="488" text-anchor="middle" font-family="Arial, sans-serif" font-size="12" fill="#475569">20</text>
<rect x="88" y="84" width="856" height="380" fill="none" stroke="#94a3b8" stroke-width="1" />
<line x1="944.00" y1="84" x2="944.00" y2="464" stroke="#f59e0b" stroke-width="2" stroke-dasharray="6 6" />
<text x="952.00" y="102" font-family="Arial, sans-serif" font-size="12" fill="#92400e">best epoch 20</text>
<line x1="734" y1="68" x2="760" y2="68" stroke="#2563eb" stroke-width="3" />
<text x="770" y="72" font-family="Arial, sans-serif" font-size="13" fill="#0f172a">train loss</text>
<line x1="734" y1="90" x2="760" y2="90" stroke="#dc2626" stroke-width="3" />
<text x="770" y="94" font-family="Arial, sans-serif" font-size="13" fill="#0f172a">validation loss</text>
<polyline fill="none" stroke="#2563eb" stroke-width="3" stroke-linecap="round" stroke-linejoin="round" points="88.00,353.42 133.05,372.30 178.11,385.74 223.16,389.98 268.21,395.38 313.26,401.19 358.32,406.80 403.37,406.44 448.42,414.70 493.47,417.71 538.53,420.30 583.58,422.82 628.63,426.97 673.68,428.55 718.74,431.05 763.79,432.77 808.84,435.40 853.89,438.41 898.95,441.10 944.00,442.88" />
<circle cx="88.00" cy="353.42" r="3.5" fill="#2563eb" />
<circle cx="133.05" cy="372.30" r="3.5" fill="#2563eb" />
<circle cx="178.11" cy="385.74" r="3.5" fill="#2563eb" />
<circle cx="223.16" cy="389.98" r="3.5" fill="#2563eb" />
<circle cx="268.21" cy="395.38" r="3.5" fill="#2563eb" />
<circle cx="313.26" cy="401.19" r="3.5" fill="#2563eb" />
<circle cx="358.32" cy="406.80" r="3.5" fill="#2563eb" />
<circle cx="403.37" cy="406.44" r="3.5" fill="#2563eb" />
<circle cx="448.42" cy="414.70" r="3.5" fill="#2563eb" />
<circle cx="493.47" cy="417.71" r="3.5" fill="#2563eb" />
<circle cx="538.53" cy="420.30" r="3.5" fill="#2563eb" />
<circle cx="583.58" cy="422.82" r="3.5" fill="#2563eb" />
<circle cx="628.63" cy="426.97" r="3.5" fill="#2563eb" />
<circle cx="673.68" cy="428.55" r="3.5" fill="#2563eb" />
<circle cx="718.74" cy="431.05" r="3.5" fill="#2563eb" />
<circle cx="763.79" cy="432.77" r="3.5" fill="#2563eb" />
<circle cx="808.84" cy="435.40" r="3.5" fill="#2563eb" />
<circle cx="853.89" cy="438.41" r="3.5" fill="#2563eb" />
<circle cx="898.95" cy="441.10" r="3.5" fill="#2563eb" />
<circle cx="944.00" cy="442.88" r="3.5" fill="#2563eb" />
<polyline fill="none" stroke="#dc2626" stroke-width="3" stroke-linecap="round" stroke-linejoin="round" points="88.00,365.27 133.05,354.68 178.11,384.55 223.16,112.15 268.21,384.76 313.26,335.31 358.32,372.67 403.37,126.70 448.42,411.17 493.47,419.72 538.53,421.96 583.58,422.87 628.63,416.97 673.68,427.86 718.74,425.94 763.79,422.42 808.84,383.55 853.89,434.89 898.95,437.57 944.00,438.14" />
<circle cx="88.00" cy="365.27" r="3.5" fill="#dc2626" />
<circle cx="133.05" cy="354.68" r="3.5" fill="#dc2626" />
<circle cx="178.11" cy="384.55" r="3.5" fill="#dc2626" />
<circle cx="223.16" cy="112.15" r="3.5" fill="#dc2626" />
<circle cx="268.21" cy="384.76" r="3.5" fill="#dc2626" />
<circle cx="313.26" cy="335.31" r="3.5" fill="#dc2626" />
<circle cx="358.32" cy="372.67" r="3.5" fill="#dc2626" />
<circle cx="403.37" cy="126.70" r="3.5" fill="#dc2626" />
<circle cx="448.42" cy="411.17" r="3.5" fill="#dc2626" />
<circle cx="493.47" cy="419.72" r="3.5" fill="#dc2626" />
<circle cx="538.53" cy="421.96" r="3.5" fill="#dc2626" />
<circle cx="583.58" cy="422.87" r="3.5" fill="#dc2626" />
<circle cx="628.63" cy="416.97" r="3.5" fill="#dc2626" />
<circle cx="673.68" cy="427.86" r="3.5" fill="#dc2626" />
<circle cx="718.74" cy="425.94" r="3.5" fill="#dc2626" />
<circle cx="763.79" cy="422.42" r="3.5" fill="#dc2626" />
<circle cx="808.84" cy="383.55" r="3.5" fill="#dc2626" />
<circle cx="853.89" cy="434.89" r="3.5" fill="#dc2626" />
<circle cx="898.95" cy="437.57" r="3.5" fill="#dc2626" />
<circle cx="944.00" cy="438.14" r="3.5" fill="#dc2626" />
<text x="516.00" y="536" text-anchor="middle" font-family="Arial, sans-serif" font-size="13" fill="#475569">Epoch</text>
<text x="24" y="274.00" text-anchor="middle" font-family="Arial, sans-serif" font-size="13" fill="#475569" transform="rotate(-90 24 274.00)">Loss</text>
</svg>