<svg xmlns="http://www.w3.org/2000/svg" width="980" height="560" viewBox="0 0 980 560">
<rect width="980" height="560" fill="#ffffff" />
<text x="88" y="38" font-family="Arial, sans-serif" font-size="26" font-weight="700" fill="#0f172a">resnet18_pretrained loss</text>
<text x="88" y="62" font-family="Arial, sans-serif" font-size="14" fill="#475569">Training and validation loss by epoch</text>
<line x1="88" y1="464.00" x2="944" y2="464.00" stroke="#dbe4f0" stroke-width="1" />
<text x="76" y="469.00" text-anchor="end" font-family="Arial, sans-serif" font-size="12" fill="#475569">0</text>
<line x1="88" y1="369.00" x2="944" y2="369.00" stroke="#dbe4f0" stroke-width="1" />
<text x="76" y="374.00" text-anchor="end" font-family="Arial, sans-serif" font-size="12" fill="#475569">0.271</text>
<line x1="88" y1="274.00" x2="944" y2="274.00" stroke="#dbe4f0" stroke-width="1" />
<text x="76" y="279.00" text-anchor="end" font-family="Arial, sans-serif" font-size="12" fill="#475569">0.542</text>
<line x1="88" y1="179.00" x2="944" y2="179.00" stroke="#dbe4f0" stroke-width="1" />
<text x="76" y="184.00" text-anchor="end" font-family="Arial, sans-serif" font-size="12" fill="#475569">0.813</text>
<line x1="88" y1="84.00" x2="944" y2="84.00" stroke="#dbe4f0" stroke-width="1" />
<text x="76" y="89.00" text-anchor="end" font-family="Arial, sans-serif" font-size="12" fill="#475569">1.083</text>
<line x1="88.00" y1="84" x2="88.00" y2="464" stroke="#dbe4f0" stroke-width="1" />
<text x="88.00" y="488" text-anchor="middle" font-family="Arial, sans-serif" font-size="12" fill="#475569">1</text>
<line x1="133.05" y1="84" x2="133.05" y2="464" stroke="#dbe4f0" stroke-width="1" />
<text x="133.05" y="488" text-anchor="middle" font-family="Arial, sans-serif" font-size="12" fill="#475569">2</text>
<line x1="178.11" y1="84" x2="178.11" y2="464" stroke="#dbe4f0" stroke-width="1" />
<text x="178.11" y="488" text-anchor="middle" font-family="Arial, sans-serif" font-size="12" fill="#475569">3</text>
<line x1="223.16" y1="84" x2="223.16" y2="464" stroke="#dbe4f0" stroke-width="1" />
<text x="223.16" y="488" text-anchor="middle" font-family="Arial, sans-serif" font-size="12" fill="#475569">4</text>
<line x1="268.21" y1="84" x2="268.21" y2="464" stroke="#dbe4f0" stroke-width="1" />
<text x="268.21" y="488" text-anchor="middle" font-family="Arial, sans-serif" font-size="12" fill="#475569">5</text>
<line x1="313.26" y1="84" x2="313.26" y2="464" stroke="#dbe4f0" stroke-width="1" />
<text x="313.26" y="488" text-anchor="middle" font-family="Arial, sans-serif" font-size="12" fill="#475569">6</text>
<line x1="358.32" y1="84" x2="358.32" y2="464" stroke="#dbe4f0" stroke-width="1" />
<text x="358.32" y="488" text-anchor="middle" font-family="Arial, sans-serif" font-size="12" fill="#475569">7</text>
<line x1="403.37" y1="84" x2="403.37" y2="464" stroke="#dbe4f0" stroke-width="1" />
<text x="403.37" y="488" text-anchor="middle" font-family="Arial, sans-serif" font-size="12" fill="#475569">8</text>
<line x1="448.42" y1="84" x2="448.42" y2="464" stroke="#dbe4f0" stroke-width="1" />
<text x="448.42" y="488" text-anchor="middle" font-family="Arial, sans-serif" font-size="12" fill="#475569">9</text>
<line x1="493.47" y1="84" x2="493.47" y2="464" stroke="#dbe4f0" stroke-width="1" />
<text x="493.47" y="488" text-anchor="middle" font-family="Arial, sans-serif" font-size="12" fill="#475569">10</text>
<line x1="538.53" y1="84" x2="538.53" y2="464" stroke="#dbe4f0" stroke-width="1" />
<text x="538.53" y="488" text-anchor="middle" font-family="Arial, sans-serif" font-size="12" fill="#475569">11</text>
<line x1="583.58" y1="84" x2="583.58" y2="464" stroke="#dbe4f0" stroke-width="1" />
<text x="583.58" y="488" text-anchor="middle" font-family="Arial, sans-serif" font-size="12" fill="#475569">12</text>
<line x1="628.63" y1="84" x2="628.63" y2="464" stroke="#dbe4f0" stroke-width="1" />
<text x="628.63" y="488" text-anchor="middle" font-family="Arial, sans-serif" font-size="12" fill="#475569">13</text>
<line x1="673.68" y1="84" x2="673.68" y2="464" stroke="#dbe4f0" stroke-width="1" />
<text x="673.68" y="488" text-anchor="middle" font-family="Arial, sans-serif" font-size="12" fill="#475569">14</text>
<line x1="718.74" y1="84" x2="718.74" y2="464" stroke="#dbe4f0" stroke-width="1" />
<text x="718.74" y="488" text-anchor="middle" font-family="Arial, sans-serif" font-size="12" fill="#475569">15</text>
<line x1="763.79" y1="84" x2="763.79" y2="464" stroke="#dbe4f0" stroke-width="1" />
<text x="763.79" y="488" text-anchor="middle" font-family="Arial, sans-serif" font-size="12" fill="#475569">16</text>
<line x1="808.84" y1="84" x2="808.84" y2="464" stroke="#dbe4f0" stroke-width="1" />
<text x="808.84" y="488" text-anchor="middle" font-family="Arial, sans-serif" font-size="12" fill="#475569">17</text>
<line x1="853.89" y1="84" x2="853.89" y2="464" stroke="#dbe4f0" stroke-width="1" />
<text x="853.89" y="488" text-anchor="middle" font-family="Arial, sans-serif" font-size="12" fill="#475569">18</text>
<line x1="898.95" y1="84" x2="898.95" y2="464" stroke="#dbe4f0" stroke-width="1" />
<text x="898.95" y="488" text-anchor="middle" font-family="Arial, sans-serif" font-size="12" fill="#475569">19</text>
<line x1="944.00" y1="84" x2="944.00" y2="464" stroke="#dbe4f0" stroke-width="1" />
<text x="944.00" y="488" text-anchor="middle" font-family="Arial, sans-serif" font-size="12" fill="#475569">20</text>
<rect x="88" y="84" width="856" height="380" fill="none" stroke="#94a3b8" stroke-width="1" />
<line x1="583.58" y1="84" x2="583.58" y2="464" stroke="#f59e0b" stroke-width="2" stroke-dasharray="6 6" />
<text x="591.58" y="102" font-family="Arial, sans-serif" font-size="12" fill="#92400e">best epoch 12</text>
<line x1="734" y1="68" x2="760" y2="68" stroke="#2563eb" stroke-width="3" />
<text x="770" y="72" font-family="Arial, sans-serif" font-size="13" fill="#0f172a">train loss</text>
<line x1="734" y1="90" x2="760" y2="90" stroke="#dc2626" stroke-width="3" />
<text x="770" y="94" font-family="Arial, sans-serif" font-size="13" fill="#0f172a">validation loss</text>
<polyline fill="none" stroke="#2563eb" stroke-width="3" stroke-linecap="round" stroke-linejoin="round" points="88.00,235.75 133.05,377.02 178.11,437.92 223.16,434.03 268.21,438.43 313.26,444.15 358.32,445.09 403.37,442.53 448.42,441.61 493.47,453.94 538.53,461.51 583.58,462.85 628.63,462.81 673.68,463.29 718.74,463.54 763.79,463.45 808.84,463.63 853.89,463.44 898.95,463.60 944.00,463.62" />
<circle cx="88.00" cy="235.75" r="3.5" fill="#2563eb" />
<circle cx="133.05" cy="377.02" r="3.5" fill="#2563eb" />
<circle cx="178.11" cy="437.92" r="3.5" fill="#2563eb" />
<circle cx="223.16" cy="434.03" r="3.5" fill="#2563eb" />
<circle cx="268.21" cy="438.43" r="3.5" fill="#2563eb" />
<circle cx="313.26" cy="444.15" r="3.5" fill="#2563eb" />
<circle cx="358.32" cy="445.09" r="3.5" fill="#2563eb" />
<circle cx="403.37" cy="442.53" r="3.5" fill="#2563eb" />
<circle cx="448.42" cy="441.61" r="3.5" fill="#2563eb" />
<circle cx="493.47" cy="453.94" r="3.5" fill="#2563eb" />
<circle cx="538.53" cy="461.51" r="3.5" fill="#2563eb" />
<circle cx="583.58" cy="462.85" r="3.5" fill="#2563eb" />
<circle cx="628.63" cy="462.81" r="3.5" fill="#2563eb" />
<circle cx="673.68" cy="463.29" r="3.5" fill="#2563eb" />
<circle cx="718.74" cy="463.54" r="3.5" fill="#2563eb" />
<circle cx="763.79" cy="463.45" r="3.5" fill="#2563eb" />
<circle cx="808.84" cy="463.63" r="3.5" fill="#2563eb" />
<circle cx="853.89" cy="463.44" r="3.5" fill="#2563eb" />
<circle cx="898.95" cy="463.60" r="3.5" fill="#2563eb" />
<circle cx="944.00" cy="463.62" r="3.5" fill="#2563eb" />
<polyline fill="none" stroke="#dc2626" stroke-width="3" stroke-linecap="round" stroke-linejoin="round" points="88.00,250.25 133.05,411.91 178.11,428.55 223.16,390.41 268.21,421.46 313.26,432.86 358.32,112.15 403.37,408.32 448.42,369.27 493.47,451.82 538.53,454.94 583.58,455.90 628.63,455.27 673.68,454.96 718.74,452.94 763.79,453.04 808.84,455.29 853.89,456.03 898.95,455.82 944.00,455.71" />
<circle cx="88.00" cy="250.25" r="3.5" fill="#dc2626" />
<circle cx="133.05" cy="411.91" r="3.5" fill="#dc2626" />
<circle cx="178.11" cy="428.55" r="3.5" fill="#dc2626" />
<circle cx="223.16" cy="390.41" r="3.5" fill="#dc2626" />
<circle cx="268.21" cy="421.46" r="3.5" fill="#dc2626" />
<circle cx="313.26" cy="432.86" r="3.5" fill="#dc2626" />
<circle cx="358.32" cy="112.15" r="3.5" fill="#dc2626" />
<circle cx="403.37" cy="408.32" r="3.5" fill="#dc2626" />
<circle cx="448.42" cy="369.27" r="3.5" fill="#dc2626" />
<circle cx="493.47" cy="451.82" r="3.5" fill="#dc2626" />
<circle cx="538.53" cy="454.94" r="3.5" fill="#dc2626" />
<circle cx="583.58" cy="455.90" r="3.5" fill="#dc2626" />
<circle cx="628.63" cy="455.27" r="3.5" fill="#dc2626" />
<circle cx="673.68" cy="454.96" r="3.5" fill="#dc2626" />
<circle cx="718.74" cy="452.94" r="3.5" fill="#dc2626" />
<circle cx="763.79" cy="453.04" r="3.5" fill="#dc2626" />
<circle cx="808.84" cy="455.29" r="3.5" fill="#dc2626" />
<circle cx="853.89" cy="456.03" r="3.5" fill="#dc2626" />
<circle cx="898.95" cy="455.82" r="3.5" fill="#dc2626" />
<circle cx="944.00" cy="455.71" r="3.5" fill="#dc2626" />
<text x="516.00" y="536" text-anchor="middle" font-family="Arial, sans-serif" font-size="13" fill="#475569">Epoch</text>
<text x="24" y="274.00" text-anchor="middle" font-family="Arial, sans-serif" font-size="13" fill="#475569" transform="rotate(-90 24 274.00)">Loss</text>
</svg>