<svg xmlns="http://www.w3.org/2000/svg" width="980" height="560" viewBox="0 0 980 560">
<rect width="980" height="560" fill="#ffffff" />
<text x="88" y="38" font-family="Arial, sans-serif" font-size="26" font-weight="700" fill="#0f172a">wang_cvp_gat_pretrained accuracy</text>
<text x="88" y="62" font-family="Arial, sans-serif" font-size="14" fill="#475569">Training and validation accuracy by epoch</text>
<line x1="88" y1="464.00" x2="944" y2="464.00" stroke="#dbe4f0" stroke-width="1" />
<text x="76" y="469.00" text-anchor="end" font-family="Arial, sans-serif" font-size="12" fill="#475569">0</text>
<line x1="88" y1="369.00" x2="944" y2="369.00" stroke="#dbe4f0" stroke-width="1" />
<text x="76" y="374.00" text-anchor="end" font-family="Arial, sans-serif" font-size="12" fill="#475569">0.25</text>
<line x1="88" y1="274.00" x2="944" y2="274.00" stroke="#dbe4f0" stroke-width="1" />
<text x="76" y="279.00" text-anchor="end" font-family="Arial, sans-serif" font-size="12" fill="#475569">0.5</text>
<line x1="88" y1="179.00" x2="944" y2="179.00" stroke="#dbe4f0" stroke-width="1" />
<text x="76" y="184.00" text-anchor="end" font-family="Arial, sans-serif" font-size="12" fill="#475569">0.75</text>
<line x1="88" y1="84.00" x2="944" y2="84.00" stroke="#dbe4f0" stroke-width="1" />
<text x="76" y="89.00" text-anchor="end" font-family="Arial, sans-serif" font-size="12" fill="#475569">1</text>
<line x1="88.00" y1="84" x2="88.00" y2="464" stroke="#dbe4f0" stroke-width="1" />
<text x="88.00" y="488" text-anchor="middle" font-family="Arial, sans-serif" font-size="12" fill="#475569">1</text>
<line x1="133.05" y1="84" x2="133.05" y2="464" stroke="#dbe4f0" stroke-width="1" />
<text x="133.05" y="488" text-anchor="middle" font-family="Arial, sans-serif" font-size="12" fill="#475569">2</text>
<line x1="178.11" y1="84" x2="178.11" y2="464" stroke="#dbe4f0" stroke-width="1" />
<text x="178.11" y="488" text-anchor="middle" font-family="Arial, sans-serif" font-size="12" fill="#475569">3</text>
<line x1="223.16" y1="84" x2="223.16" y2="464" stroke="#dbe4f0" stroke-width="1" />
<text x="223.16" y="488" text-anchor="middle" font-family="Arial, sans-serif" font-size="12" fill="#475569">4</text>
<line x1="268.21" y1="84" x2="268.21" y2="464" stroke="#dbe4f0" stroke-width="1" />
<text x="268.21" y="488" text-anchor="middle" font-family="Arial, sans-serif" font-size="12" fill="#475569">5</text>
<line x1="313.26" y1="84" x2="313.26" y2="464" stroke="#dbe4f0" stroke-width="1" />
<text x="313.26" y="488" text-anchor="middle" font-family="Arial, sans-serif" font-size="12" fill="#475569">6</text>
<line x1="358.32" y1="84" x2="358.32" y2="464" stroke="#dbe4f0" stroke-width="1" />
<text x="358.32" y="488" text-anchor="middle" font-family="Arial, sans-serif" font-size="12" fill="#475569">7</text>
<line x1="403.37" y1="84" x2="403.37" y2="464" stroke="#dbe4f0" stroke-width="1" />
<text x="403.37" y="488" text-anchor="middle" font-family="Arial, sans-serif" font-size="12" fill="#475569">8</text>
<line x1="448.42" y1="84" x2="448.42" y2="464" stroke="#dbe4f0" stroke-width="1" />
<text x="448.42" y="488" text-anchor="middle" font-family="Arial, sans-serif" font-size="12" fill="#475569">9</text>
<line x1="493.47" y1="84" x2="493.47" y2="464" stroke="#dbe4f0" stroke-width="1" />
<text x="493.47" y="488" text-anchor="middle" font-family="Arial, sans-serif" font-size="12" fill="#475569">10</text>
<line x1="538.53" y1="84" x2="538.53" y2="464" stroke="#dbe4f0" stroke-width="1" />
<text x="538.53" y="488" text-anchor="middle" font-family="Arial, sans-serif" font-size="12" fill="#475569">11</text>
<line x1="583.58" y1="84" x2="583.58" y2="464" stroke="#dbe4f0" stroke-width="1" />
<text x="583.58" y="488" text-anchor="middle" font-family="Arial, sans-serif" font-size="12" fill="#475569">12</text>
<line x1="628.63" y1="84" x2="628.63" y2="464" stroke="#dbe4f0" stroke-width="1" />
<text x="628.63" y="488" text-anchor="middle" font-family="Arial, sans-serif" font-size="12" fill="#475569">13</text>
<line x1="673.68" y1="84" x2="673.68" y2="464" stroke="#dbe4f0" stroke-width="1" />
<text x="673.68" y="488" text-anchor="middle" font-family="Arial, sans-serif" font-size="12" fill="#475569">14</text>
<line x1="718.74" y1="84" x2="718.74" y2="464" stroke="#dbe4f0" stroke-width="1" />
<text x="718.74" y="488" text-anchor="middle" font-family="Arial, sans-serif" font-size="12" fill="#475569">15</text>
<line x1="763.79" y1="84" x2="763.79" y2="464" stroke="#dbe4f0" stroke-width="1" />
<text x="763.79" y="488" text-anchor="middle" font-family="Arial, sans-serif" font-size="12" fill="#475569">16</text>
<line x1="808.84" y1="84" x2="808.84" y2="464" stroke="#dbe4f0" stroke-width="1" />
<text x="808.84" y="488" text-anchor="middle" font-family="Arial, sans-serif" font-size="12" fill="#475569">17</text>
<line x1="853.89" y1="84" x2="853.89" y2="464" stroke="#dbe4f0" stroke-width="1" />
<text x="853.89" y="488" text-anchor="middle" font-family="Arial, sans-serif" font-size="12" fill="#475569">18</text>
<line x1="898.95" y1="84" x2="898.95" y2="464" stroke="#dbe4f0" stroke-width="1" />
<text x="898.95" y="488" text-anchor="middle" font-family="Arial, sans-serif" font-size="12" fill="#475569">19</text>
<line x1="944.00" y1="84" x2="944.00" y2="464" stroke="#dbe4f0" stroke-width="1" />
<text x="944.00" y="488" text-anchor="middle" font-family="Arial, sans-serif" font-size="12" fill="#475569">20</text>
<rect x="88" y="84" width="856" height="380" fill="none" stroke="#94a3b8" stroke-width="1" />
<line x1="808.84" y1="84" x2="808.84" y2="464" stroke="#f59e0b" stroke-width="2" stroke-dasharray="6 6" />
<text x="816.84" y="102" font-family="Arial, sans-serif" font-size="12" fill="#92400e">best epoch 17</text>
<line x1="734" y1="68" x2="760" y2="68" stroke="#16a34a" stroke-width="3" />
<text x="770" y="72" font-family="Arial, sans-serif" font-size="13" fill="#0f172a">train accuracy</text>
<line x1="734" y1="90" x2="760" y2="90" stroke="#9333ea" stroke-width="3" />
<text x="770" y="94" font-family="Arial, sans-serif" font-size="13" fill="#0f172a">validation accuracy</text>
<polyline fill="none" stroke="#16a34a" stroke-width="3" stroke-linecap="round" stroke-linejoin="round" points="88.00,215.21 133.05,149.74 178.11,149.20 223.16,126.28 268.21,128.47 313.26,117.83 358.32,115.37 403.37,108.01 448.42,93.55 493.47,88.36 538.53,86.73 583.58,86.73 628.63,86.46 673.68,85.09 718.74,84.82 763.79,85.64 808.84,84.82 853.89,84.55 898.95,84.55 944.00,84.55" />
<circle cx="88.00" cy="215.21" r="3.5" fill="#16a34a" />
<circle cx="133.05" cy="149.74" r="3.5" fill="#16a34a" />
<circle cx="178.11" cy="149.20" r="3.5" fill="#16a34a" />
<circle cx="223.16" cy="126.28" r="3.5" fill="#16a34a" />
<circle cx="268.21" cy="128.47" r="3.5" fill="#16a34a" />
<circle cx="313.26" cy="117.83" r="3.5" fill="#16a34a" />
<circle cx="358.32" cy="115.37" r="3.5" fill="#16a34a" />
<circle cx="403.37" cy="108.01" r="3.5" fill="#16a34a" />
<circle cx="448.42" cy="93.55" r="3.5" fill="#16a34a" />
<circle cx="493.47" cy="88.36" r="3.5" fill="#16a34a" />
<circle cx="538.53" cy="86.73" r="3.5" fill="#16a34a" />
<circle cx="583.58" cy="86.73" r="3.5" fill="#16a34a" />
<circle cx="628.63" cy="86.46" r="3.5" fill="#16a34a" />
<circle cx="673.68" cy="85.09" r="3.5" fill="#16a34a" />
<circle cx="718.74" cy="84.82" r="3.5" fill="#16a34a" />
<circle cx="763.79" cy="85.64" r="3.5" fill="#16a34a" />
<circle cx="808.84" cy="84.82" r="3.5" fill="#16a34a" />
<circle cx="853.89" cy="84.55" r="3.5" fill="#16a34a" />
<circle cx="898.95" cy="84.55" r="3.5" fill="#16a34a" />
<circle cx="944.00" cy="84.55" r="3.5" fill="#16a34a" />
<polyline fill="none" stroke="#9333ea" stroke-width="3" stroke-linecap="round" stroke-linejoin="round" points="88.00,243.09 133.05,133.46 178.11,137.58 223.16,129.34 268.21,112.85 313.26,157.36 358.32,155.71 403.37,113.67 448.42,90.59 493.47,90.59 538.53,89.77 583.58,94.72 628.63,89.77 673.68,88.12 718.74,88.12 763.79,86.47 808.84,85.65 853.89,85.65 898.95,86.47 944.00,86.47" />
<circle cx="88.00" cy="243.09" r="3.5" fill="#9333ea" />
<circle cx="133.05" cy="133.46" r="3.5" fill="#9333ea" />
<circle cx="178.11" cy="137.58" r="3.5" fill="#9333ea" />
<circle cx="223.16" cy="129.34" r="3.5" fill="#9333ea" />
<circle cx="268.21" cy="112.85" r="3.5" fill="#9333ea" />
<circle cx="313.26" cy="157.36" r="3.5" fill="#9333ea" />
<circle cx="358.32" cy="155.71" r="3.5" fill="#9333ea" />
<circle cx="403.37" cy="113.67" r="3.5" fill="#9333ea" />
<circle cx="448.42" cy="90.59" r="3.5" fill="#9333ea" />
<circle cx="493.47" cy="90.59" r="3.5" fill="#9333ea" />
<circle cx="538.53" cy="89.77" r="3.5" fill="#9333ea" />
<circle cx="583.58" cy="94.72" r="3.5" fill="#9333ea" />
<circle cx="628.63" cy="89.77" r="3.5" fill="#9333ea" />
<circle cx="673.68" cy="88.12" r="3.5" fill="#9333ea" />
<circle cx="718.74" cy="88.12" r="3.5" fill="#9333ea" />
<circle cx="763.79" cy="86.47" r="3.5" fill="#9333ea" />
<circle cx="808.84" cy="85.65" r="3.5" fill="#9333ea" />
<circle cx="853.89" cy="85.65" r="3.5" fill="#9333ea" />
<circle cx="898.95" cy="86.47" r="3.5" fill="#9333ea" />
<circle cx="944.00" cy="86.47" r="3.5" fill="#9333ea" />
<text x="516.00" y="536" text-anchor="middle" font-family="Arial, sans-serif" font-size="13" fill="#475569">Epoch</text>
<text x="24" y="274.00" text-anchor="middle" font-family="Arial, sans-serif" font-size="13" fill="#475569" transform="rotate(-90 24 274.00)">Accuracy</text>
</svg>