<svg xmlns="http://www.w3.org/2000/svg" width="980" height="560" viewBox="0 0 980 560">
<rect width="980" height="560" fill="#ffffff" />
<text x="88" y="38" font-family="Arial, sans-serif" font-size="26" font-weight="700" fill="#0f172a">wang_cvp_gat_pretrained loss</text>
<text x="88" y="62" font-family="Arial, sans-serif" font-size="14" fill="#475569">Training and validation loss by epoch</text>
<line x1="88" y1="464.00" x2="944" y2="464.00" stroke="#dbe4f0" stroke-width="1" />
<text x="76" y="469.00" text-anchor="end" font-family="Arial, sans-serif" font-size="12" fill="#475569">0</text>
<line x1="88" y1="369.00" x2="944" y2="369.00" stroke="#dbe4f0" stroke-width="1" />
<text x="76" y="374.00" text-anchor="end" font-family="Arial, sans-serif" font-size="12" fill="#475569">0.317</text>
<line x1="88" y1="274.00" x2="944" y2="274.00" stroke="#dbe4f0" stroke-width="1" />
<text x="76" y="279.00" text-anchor="end" font-family="Arial, sans-serif" font-size="12" fill="#475569">0.635</text>
<line x1="88" y1="179.00" x2="944" y2="179.00" stroke="#dbe4f0" stroke-width="1" />
<text x="76" y="184.00" text-anchor="end" font-family="Arial, sans-serif" font-size="12" fill="#475569">0.952</text>
<line x1="88" y1="84.00" x2="944" y2="84.00" stroke="#dbe4f0" stroke-width="1" />
<text x="76" y="89.00" text-anchor="end" font-family="Arial, sans-serif" font-size="12" fill="#475569">1.269</text>
<line x1="88.00" y1="84" x2="88.00" y2="464" stroke="#dbe4f0" stroke-width="1" />
<text x="88.00" y="488" text-anchor="middle" font-family="Arial, sans-serif" font-size="12" fill="#475569">1</text>
<line x1="133.05" y1="84" x2="133.05" y2="464" stroke="#dbe4f0" stroke-width="1" />
<text x="133.05" y="488" text-anchor="middle" font-family="Arial, sans-serif" font-size="12" fill="#475569">2</text>
<line x1="178.11" y1="84" x2="178.11" y2="464" stroke="#dbe4f0" stroke-width="1" />
<text x="178.11" y="488" text-anchor="middle" font-family="Arial, sans-serif" font-size="12" fill="#475569">3</text>
<line x1="223.16" y1="84" x2="223.16" y2="464" stroke="#dbe4f0" stroke-width="1" />
<text x="223.16" y="488" text-anchor="middle" font-family="Arial, sans-serif" font-size="12" fill="#475569">4</text>
<line x1="268.21" y1="84" x2="268.21" y2="464" stroke="#dbe4f0" stroke-width="1" />
<text x="268.21" y="488" text-anchor="middle" font-family="Arial, sans-serif" font-size="12" fill="#475569">5</text>
<line x1="313.26" y1="84" x2="313.26" y2="464" stroke="#dbe4f0" stroke-width="1" />
<text x="313.26" y="488" text-anchor="middle" font-family="Arial, sans-serif" font-size="12" fill="#475569">6</text>
<line x1="358.32" y1="84" x2="358.32" y2="464" stroke="#dbe4f0" stroke-width="1" />
<text x="358.32" y="488" text-anchor="middle" font-family="Arial, sans-serif" font-size="12" fill="#475569">7</text>
<line x1="403.37" y1="84" x2="403.37" y2="464" stroke="#dbe4f0" stroke-width="1" />
<text x="403.37" y="488" text-anchor="middle" font-family="Arial, sans-serif" font-size="12" fill="#475569">8</text>
<line x1="448.42" y1="84" x2="448.42" y2="464" stroke="#dbe4f0" stroke-width="1" />
<text x="448.42" y="488" text-anchor="middle" font-family="Arial, sans-serif" font-size="12" fill="#475569">9</text>
<line x1="493.47" y1="84" x2="493.47" y2="464" stroke="#dbe4f0" stroke-width="1" />
<text x="493.47" y="488" text-anchor="middle" font-family="Arial, sans-serif" font-size="12" fill="#475569">10</text>
<line x1="538.53" y1="84" x2="538.53" y2="464" stroke="#dbe4f0" stroke-width="1" />
<text x="538.53" y="488" text-anchor="middle" font-family="Arial, sans-serif" font-size="12" fill="#475569">11</text>
<line x1="583.58" y1="84" x2="583.58" y2="464" stroke="#dbe4f0" stroke-width="1" />
<text x="583.58" y="488" text-anchor="middle" font-family="Arial, sans-serif" font-size="12" fill="#475569">12</text>
<line x1="628.63" y1="84" x2="628.63" y2="464" stroke="#dbe4f0" stroke-width="1" />
<text x="628.63" y="488" text-anchor="middle" font-family="Arial, sans-serif" font-size="12" fill="#475569">13</text>
<line x1="673.68" y1="84" x2="673.68" y2="464" stroke="#dbe4f0" stroke-width="1" />
<text x="673.68" y="488" text-anchor="middle" font-family="Arial, sans-serif" font-size="12" fill="#475569">14</text>
<line x1="718.74" y1="84" x2="718.74" y2="464" stroke="#dbe4f0" stroke-width="1" />
<text x="718.74" y="488" text-anchor="middle" font-family="Arial, sans-serif" font-size="12" fill="#475569">15</text>
<line x1="763.79" y1="84" x2="763.79" y2="464" stroke="#dbe4f0" stroke-width="1" />
<text x="763.79" y="488" text-anchor="middle" font-family="Arial, sans-serif" font-size="12" fill="#475569">16</text>
<line x1="808.84" y1="84" x2="808.84" y2="464" stroke="#dbe4f0" stroke-width="1" />
<text x="808.84" y="488" text-anchor="middle" font-family="Arial, sans-serif" font-size="12" fill="#475569">17</text>
<line x1="853.89" y1="84" x2="853.89" y2="464" stroke="#dbe4f0" stroke-width="1" />
<text x="853.89" y="488" text-anchor="middle" font-family="Arial, sans-serif" font-size="12" fill="#475569">18</text>
<line x1="898.95" y1="84" x2="898.95" y2="464" stroke="#dbe4f0" stroke-width="1" />
<text x="898.95" y="488" text-anchor="middle" font-family="Arial, sans-serif" font-size="12" fill="#475569">19</text>
<line x1="944.00" y1="84" x2="944.00" y2="464" stroke="#dbe4f0" stroke-width="1" />
<text x="944.00" y="488" text-anchor="middle" font-family="Arial, sans-serif" font-size="12" fill="#475569">20</text>
<rect x="88" y="84" width="856" height="380" fill="none" stroke="#94a3b8" stroke-width="1" />
<line x1="808.84" y1="84" x2="808.84" y2="464" stroke="#f59e0b" stroke-width="2" stroke-dasharray="6 6" />
<text x="816.84" y="102" font-family="Arial, sans-serif" font-size="12" fill="#92400e">best epoch 17</text>
<line x1="734" y1="68" x2="760" y2="68" stroke="#2563eb" stroke-width="3" />
<text x="770" y="72" font-family="Arial, sans-serif" font-size="13" fill="#0f172a">train loss</text>
<line x1="734" y1="90" x2="760" y2="90" stroke="#dc2626" stroke-width="3" />
<text x="770" y="94" font-family="Arial, sans-serif" font-size="13" fill="#0f172a">validation loss</text>
<polyline fill="none" stroke="#2563eb" stroke-width="3" stroke-linecap="round" stroke-linejoin="round" points="88.00,221.95 133.05,352.46 178.11,343.84 223.16,388.50 268.21,376.74 313.26,397.34 358.32,400.04 403.37,415.77 448.42,442.43 493.47,455.06 538.53,457.60 583.58,457.37 628.63,459.18 673.68,460.44 718.74,461.21 763.79,461.14 808.84,462.13 853.89,462.12 898.95,462.14 944.00,462.46" />
<circle cx="88.00" cy="221.95" r="3.5" fill="#2563eb" />
<circle cx="133.05" cy="352.46" r="3.5" fill="#2563eb" />
<circle cx="178.11" cy="343.84" r="3.5" fill="#2563eb" />
<circle cx="223.16" cy="388.50" r="3.5" fill="#2563eb" />
<circle cx="268.21" cy="376.74" r="3.5" fill="#2563eb" />
<circle cx="313.26" cy="397.34" r="3.5" fill="#2563eb" />
<circle cx="358.32" cy="400.04" r="3.5" fill="#2563eb" />
<circle cx="403.37" cy="415.77" r="3.5" fill="#2563eb" />
<circle cx="448.42" cy="442.43" r="3.5" fill="#2563eb" />
<circle cx="493.47" cy="455.06" r="3.5" fill="#2563eb" />
<circle cx="538.53" cy="457.60" r="3.5" fill="#2563eb" />
<circle cx="583.58" cy="457.37" r="3.5" fill="#2563eb" />
<circle cx="628.63" cy="459.18" r="3.5" fill="#2563eb" />
<circle cx="673.68" cy="460.44" r="3.5" fill="#2563eb" />
<circle cx="718.74" cy="461.21" r="3.5" fill="#2563eb" />
<circle cx="763.79" cy="461.14" r="3.5" fill="#2563eb" />
<circle cx="808.84" cy="462.13" r="3.5" fill="#2563eb" />
<circle cx="853.89" cy="462.12" r="3.5" fill="#2563eb" />
<circle cx="898.95" cy="462.14" r="3.5" fill="#2563eb" />
<circle cx="944.00" cy="462.46" r="3.5" fill="#2563eb" />
<polyline fill="none" stroke="#dc2626" stroke-width="3" stroke-linecap="round" stroke-linejoin="round" points="88.00,112.15 133.05,364.47 178.11,364.85 223.16,327.10 268.21,392.89 313.26,296.59 358.32,282.81 403.37,362.38 448.42,449.12 493.47,444.79 538.53,448.33 583.58,437.55 628.63,451.66 673.68,453.90 718.74,453.64 763.79,456.24 808.84,455.89 853.89,453.74 898.95,453.73 944.00,452.48" />
<circle cx="88.00" cy="112.15" r="3.5" fill="#dc2626" />
<circle cx="133.05" cy="364.47" r="3.5" fill="#dc2626" />
<circle cx="178.11" cy="364.85" r="3.5" fill="#dc2626" />
<circle cx="223.16" cy="327.10" r="3.5" fill="#dc2626" />
<circle cx="268.21" cy="392.89" r="3.5" fill="#dc2626" />
<circle cx="313.26" cy="296.59" r="3.5" fill="#dc2626" />
<circle cx="358.32" cy="282.81" r="3.5" fill="#dc2626" />
<circle cx="403.37" cy="362.38" r="3.5" fill="#dc2626" />
<circle cx="448.42" cy="449.12" r="3.5" fill="#dc2626" />
<circle cx="493.47" cy="444.79" r="3.5" fill="#dc2626" />
<circle cx="538.53" cy="448.33" r="3.5" fill="#dc2626" />
<circle cx="583.58" cy="437.55" r="3.5" fill="#dc2626" />
<circle cx="628.63" cy="451.66" r="3.5" fill="#dc2626" />
<circle cx="673.68" cy="453.90" r="3.5" fill="#dc2626" />
<circle cx="718.74" cy="453.64" r="3.5" fill="#dc2626" />
<circle cx="763.79" cy="456.24" r="3.5" fill="#dc2626" />
<circle cx="808.84" cy="455.89" r="3.5" fill="#dc2626" />
<circle cx="853.89" cy="453.74" r="3.5" fill="#dc2626" />
<circle cx="898.95" cy="453.73" r="3.5" fill="#dc2626" />
<circle cx="944.00" cy="452.48" r="3.5" fill="#dc2626" />
<text x="516.00" y="536" text-anchor="middle" font-family="Arial, sans-serif" font-size="13" fill="#475569">Epoch</text>
<text x="24" y="274.00" text-anchor="middle" font-family="Arial, sans-serif" font-size="13" fill="#475569" transform="rotate(-90 24 274.00)">Loss</text>
</svg>